<?xml version="1.0" encoding="UTF-8"?><!DOCTYPE svg PUBLIC "-//W3C//DTD SVG 1.1//EN" "http://www.w3.org/Graphics/SVG/1.1/DTD/svg11.dtd"><svg xmlns="http://www.w3.org/2000/svg" xmlns:xlink="http://www.w3.org/1999/xlink"><defs><clipPath id="a"><path fill="#fff" d="M0 0h140v70H0z"/></clipPath><clipPath id="a"><path fill="#fff" d="M12 12h24v24H12z"/></clipPath></defs><symbol id="food-tablet"><g fill="none"><path fill="#81B3D2" d="M69.05 46H4.26c-2.3 0-4.12 2-4.12 4.3v3.5c0 2.3 1.82 4.2 4.12 4.2h.96v1c0 5.5 4.31 9.9 9.49 9.9h43.9c5.27 0 9.49-4.5 9.49-9.9v-1h.95c2.2 0 4.13-1.9 4.13-4.3v-3.5c0-2.2-1.83-4.2-4.13-4.2Zm-3.73 13c0 3.8-2.97 6.9-6.62 6.9H14.61C10.97 65.9 8 62.8 8 59v-1h57.32v1Zm4.98-5.3c0 .7-.57 1.3-1.25 1.3H4.26a1.3 1.3 0 0 1-1.24-1.3v-3.5c0-.6.57-1.2 1.24-1.2h64.89c.67 0 1.25.6 1.25 1.3v3.4h-.1ZM15.67 37.9l5.17 4 5.28-4 5.27 4 5.27-4 5.17 4 5.28-4 5.27 4 5.27-4 5.27 4 6.04-4.7-1.63-2.4-4.41 3.3-5.27-4-5.27 4-5.27-4-5.28 4-5.17-4-5.27 4-5.27-4-5.28 4-5.17-4-5.27 4-4.41-3.3-1.73 2.4 6.14 4.7 5.27-4Zm52.43-6.8c0-.6.1-2.6 0-3C67.42 12.5 53.62 0 36.66 0 19.69 0 5.8 12.5 5.12 28.1v3H68.1ZM36.66 3c15.33 0 27.99 11.2 28.56 25.1H8C8.67 14.2 21.32 3 36.66 3Z"/><path fill="#81B3D2" d="M36.66 17c1.06 0 1.92-.9 1.92-2s-.86-2-1.92-2-1.92.9-1.92 2 .86 2 1.92 2Zm-7.67-4.9c1.06 0 1.92-.9 1.92-2s-.86-2-1.92-2-1.92.9-1.92 2 .86 2 1.92 2Zm15.34 0c1.05 0 1.91-.9 1.91-2s-.86-2-1.91-2c-1.06 0-1.92.9-1.92 2s.86 2 1.92 2Z"/></g></symbol><symbol id="food"><g fill="none"><path fill="#83B3D3" d="M70.58 46.7H4.6C2.31 46.7.5 48.6.5 51v3.5c0 2.4 1.9 4.3 4.11 4.3h.9v1.1c0 5.5 4.31 10.1 9.63 10.1h44.7c5.32 0 9.63-4.5 9.63-10.1v-1.1h.9c2.31 0 4.12-1.9 4.12-4.3V51a4 4 0 0 0-3.91-4.3Zm-3.91 13.2c0 3.9-3.01 7-6.72 7H15.14c-3.71 0-6.72-3.2-6.72-7v-1.1h58.25v1.1Zm5.1-5.4c0 .7-.6 1.3-1.2 1.3H4.52c-.7 0-1.2-.6-1.2-1.3V51c0-.7.6-1.3 1.2-1.3h65.97c.7 0 1.2.6 1.2 1.3.1 0 .1 3.5.1 3.5ZM16.14 38.4l5.41 4.1 5.32-4.1 5.3 4.1 5.32-4.1 5.42 4.1 5.31-4.1 5.31 4.1 5.42-4.1 5.31 4.1 6.22-4.7-1.7-2.5-4.52 3.4-5.31-4.1-5.42 4.1-5.31-4.1-5.31 4.1-5.42-4.1-5.31 4.1-5.31-4.1-5.32 4.1-5.41-4.1-5.31 4.1-4.52-3.4-1.7 2.5 6.22 4.7 5.3-4.1Zm-7.62-6.9h60.95c0-.6.1-1.2.1-1.9v-1.2C68.87 12.7 54.84 0 37.6 0 20.25 0 6.21 12.7 5.51 28.5v1.2c0 .6 0 1.2.1 1.8h2.91ZM37.59 3c15.64 0 28.47 11.3 29.08 25.5H8.52C9.12 14.4 21.95 3 37.59 3Z"/><path fill="#83B3D3" d="M37.6 17.3c1.05 0 1.9-.9 1.9-2s-.85-2-1.9-2c-1.06 0-1.91.9-1.91 2s.85 2 1.9 2Zm-7.83-5.1c1.06 0 1.9-.9 1.9-2s-.84-2-1.9-2c-1.05 0-1.9.9-1.9 2s.85 2 1.9 2Zm15.54 0c1.05 0 1.9-.9 1.9-2s-.85-2-1.9-2c-1.05 0-1.9.9-1.9 2s.85 2 1.9 2Z"/></g></symbol><symbol id="house-tablet"><g fill="none"><path fill="#81B3D2" d="M31.96 65.3h17.02V41.4H31.96v23.9Zm13.93-2.9H35.04V44.3H45.8v18.1h.1Z"/><path fill="#81B3D2" d="m77.8 39.4 2.24-2.1-10.53-9.9V.4H54.83v13.2L40.26 0 .57 37.4l2.24 2.1 8.3-7.8v37.8H6.96v2.9h67.98v-2.9H69.5V31.6l8.3 7.8Zm-19.89-36h8.4v21.1l-8.4-7.9V3.4Zm8.52 66H14.3V28.7L40.26 4.2l26.06 24.5v40.7h.1Z"/><path fill="#81B3D2" d="M32.28 27.2c0 4.3 3.72 7.8 8.19 7.8 4.57 0 8.3-3.5 8.3-7.8s-3.73-7.7-8.3-7.7c-4.58 0-8.2 3.4-8.2 7.7Zm8.19-5c2.87 0 5.32 2.2 5.32 5 0 2.7-2.34 5-5.32 5-2.87 0-5.32-2.2-5.32-5 0-2.7 2.45-5 5.32-5ZM21.74 41.4h-3.19v3.9h3.2v-3.9Zm6.28 0h-3.19v3.9h3.2v-3.9Zm-6.28 6h-3.19v3.9h3.2v-3.9Zm6.28 0h-3.19v3.9h3.2v-3.9Zm27.66-6h-3.2v3.9h3.2v-3.9Zm6.38 0h-3.19v3.9h3.2v-3.9Zm-6.38 6h-3.2v3.9h3.2v-3.9Zm6.38 0h-3.19v3.9h3.2v-3.9Z"/></g></symbol><symbol id="house"><g fill="none"><path fill="#83B3D3" d="M30.12 65h16.06V41.2H30.12V65Zm2.91-20.9h10.14v18H33.03v-18Z"/><path fill="#83B3D3" d="m73.4 39.3 2.1-2.1-9.94-9.9V0H51.6v13.6L37.95 0 .5 37.2l2.1 2.1 7.84-7.8v37.6H6.42V72h64.16v-2.9h-5.12V31.5l7.93 7.8ZM62.54 69.1h-49.2V28.5l24.6-24.4 24.6 24.4v40.6Zm0-44.7-7.93-7.9V2.9h7.93v21.5Z"/><path fill="#83B3D3" d="M30.32 27.1c0 4.3 3.51 7.7 7.73 7.7a7.8 7.8 0 0 0 7.83-7.7c0-4.3-3.51-7.7-7.83-7.7a7.72 7.72 0 0 0-7.73 7.7Zm7.83-5a5 5 0 0 1 5.02 4.9c0 2.7-2.2 4.9-5.02 4.9a5 5 0 0 1-5.02-4.9c0-2.7 2.2-4.9 5.02-4.9ZM20.48 41.2h-3.01v3.9h3.01v-3.9Zm5.92 0h-3v3.9h3v-3.9Zm-5.92 6h-3.01v3.9h3.01v-3.9Zm5.92 0h-3v3.9h3v-3.9Zm26.1-6h-3v3.9h3v-3.9Zm5.93 0h-3.01v3.9h3.01v-3.9Zm-5.93 6h-3v3.9h3v-3.9Zm5.93 0h-3.01v3.9h3.01v-3.9Z"/></g></symbol><symbol id="htmlacademy"><g fill="none"><path fill="#000" d="M14.15.25h-.1L.5 1.59v23.63l13.55 7.66 13.45-7.66V1.6L14.15.25ZM25.6 11.83l-11.54-6.5v-.1h-.1l-.1-.1v.1L2.4 11.83V3.22l11.54-1.15 11.64 1.15v8.6ZM13.95 6.76l11.54 6.4-4.51 2.5-7.13-4.02v1.33l5.92 3.35-.9.48-5.02-2.87v1.34l3.81 2.2-.8.48-3.01-1.72v1.34l1.9 1.05-1.8 1.05-11.44-6.4 11.44-6.51ZM2.41 14.7l11.44 6.5v.96l-7.93-4.5V19l8.03 4.6v1.05l-8.03-4.5v1.34l8.03 4.6 8.13-4.7v-4.97l3.41-1.91v9.56l-11.54 6.6-11.54-6.5V14.7Z"/></g></symbol><symbol id="like-desktop"><g fill="none"><path fill="#fff" d="m12.96 3.78-.62 3.05-.63 2.62h9.09v2.2l-3.03 7.25h-9.4V8.4l4.6-4.62ZM2.1 10.5v8.4-8.4ZM13.8 0 6.9 6.93c-.42.32-.63.84-.63 1.47v10.5c0 1.16.94 2.1 2.1 2.1h9.4c.84 0 1.57-.52 1.88-1.26l3.14-7.45c.1-.21.1-.53.1-.74v-2.1H23a2.1 2.1 0 0 0-2.1-2.1h-6.58l1.05-4.83v-.31c0-.43-.21-.84-.42-1.16L13.8 0ZM4.18 8.4H0V21h4.18V8.4Z"/></g></symbol><symbol id="like"><g fill="none"><path fill="#000" d="m12.96 3.78-.62 3.05-.63 2.62h9.09v2.2l-3.03 7.25h-9.4V8.4l4.6-4.62ZM2.1 10.5v8.4-8.4ZM13.8 0 6.9 6.93c-.42.32-.63.84-.63 1.47v10.5c0 1.16.94 2.1 2.1 2.1h9.4c.84 0 1.57-.52 1.88-1.26l3.14-7.45c.1-.21.1-.53.1-.74v-2.1H23a2.1 2.1 0 0 0-2.1-2.1h-6.58l1.05-4.83v-.31c0-.43-.21-.84-.42-1.16L13.8 0ZM4.18 8.4H0V21h4.18V8.4Z" opacity=".3"/></g></symbol><symbol id="sedona-headder"><g fill="none"><g clip-path="url(#a)"><path fill="#81B3D3" d="M140 0H0l60.36 65.7c5.28 5.8 14 5.8 19.28 0L140 0Z"/><path fill="#23A9E1" d="M37.23.5 69.8 38.4 102.26.7 37.23.5Z"/><path fill="#fff" d="M61.99 14.7h17.55c-1.32-.8-4.47-4.6-6.1-3.2-.1.1-4.96-5.7-8.1-2.9-2.75 2.5-4.06-.3-7.1 1.6-3.66 2.4 2.02 3.7 3.75 4.5Zm27.08-3.5-9.94.1c3.96-4.5 5.68-4 9.94-.1Z"/><path fill="#491213" d="M99.01 3.6V1.2h2.13l-2.13 2.4ZM49.11 13c.1.1 2.43-2.4 6.18-4.9 3.45-2.3 8.72-4.9 14.6-4.9 5.9 0 11.27 2.7 14.72 5 3.75 2.4 6.09 4.8 6.19 4.9l-2.54 3c-4.56.6-7.81 3.9-12.27 3.2-2.24-.4-2.34-1.6-2.95-2.9-.5-1-1.32-.8-2.33-1.2-.91-.4-1.52-1.1-3.45-.7-1.62.4-1.83 2.9-3.96 2.8-1.11-.1-1.21-1.6-2.84-3.6-4.16-4.9-7.95-4.29-10.59.21L49.1 13ZM40.57 1.2v1.9l-1.62-1.9h1.62Zm54.68 0h3.25v3L95.26 8V1.2ZM91.1 12.6V1.2h3.55v7.4l-3.55 4Zm-.5-10.4v9.9a26.33 26.33 0 0 0-3.66-3l3.65-6.9Zm-4.17-.3v6.8c-.5-.3-.9-.7-1.52-1-.7-.4-1.42-.9-2.23-1.3l3.75-4.5Zm-4.46-.2V6c-1.01-.5-2.13-1-3.14-1.5l3.14-2.8Zm.61-.5h3.75l-3.75 4.6V1.2Zm4.36 0h3.65l-3.65 7.1V1.2Zm-8.93 0h3.96l-3.55 3.1c-.1 0-.2-.1-.3-.1l-.1-3Zm-.5.4V4c-1.02-.4-2.03-.7-3.15-.9l3.15-1.5Zm-4.26 0v1.3L71 2.6l2.24-1Zm-6.9 0 2.23 1c-.81 0-1.52.1-2.23.3V1.6Zm-4.16 0 3.14 1.5c-1.11.2-2.13.5-3.14.9V1.6Zm3.65 1.2L62.5 1.2h3.35v1.6Zm3.55-.4-2.84-1.3h2.84v1.3Zm.71-1.2h2.94L70.1 2.5V1.2Zm3.76 0h3.24l-3.24 1.6V1.2ZM61.28 4.3l-3.56-3.1h3.96v3l-.4.1Zm-3.66-2.6 3.15 2.7c-1.12.4-2.13.9-3.15 1.5V1.7Zm-4.36.2 3.65 4.5a22.9 22.9 0 0 0-3.65 2.4V1.9ZM49 2.2l3.65 7c-1.32 1-2.53 2-3.65 3.2V2.2Zm3.75 6L49.1 1.1h3.65v7.1Zm4.37-2.5-3.76-4.6h3.76v4.6ZM44.33 7.5 41.1 3.7V1.2h3.24v6.3Zm.61-6.3h3.55v11.2l-3.55-4.2v-7ZM36.52 0v14.6L70 54.5 103.48 15V0H36.52Z"/><path fill="#23A9E1" d="M67.36 46 70 41.8l2.64 4.2L70 50.2 67.36 46Z"/><path fill="#DC6243" d="M75.28 30.6c-3.45-2-2.64-3.5.2-4.9 1.52-.7 4.87-3.4 6.19-2.5l-6.4 7.4Zm-2.34 2.5c-2.03-.1-4.36-.4-6.39.1 1.22.3 4.26 1.2 1.42 1.9 1.02 1.4 2.64 1.3 3.65.1-.4-.2-.7-.5-1.01-.7 1.11-.3 2.13-.9 2.33-1.4Zm1.22-1.6c-.91-.8-1.93-.8-2.74 0-1.22-2.1-5.48-1.4-7.5-1.7 1.1 2.6 9.73 3.1 10.24 1.7Zm-6.9-2.2c-1.62-.5-6.9-.4-3.45-1.8 1.12-.4 6.8.1 3.45 1.8Zm2.03-3c-.5-1.1.4-2.4 1.72-1.4 1.22.8-.6 2-1.72 1.4Zm-2.94.1c-2.34.7-5.38-.8-1.63-1.5 2.34-.5 4.77.5 1.63 1.5.1 0-.1 0 0 0Zm-2.64-6.2c-.5 1.6-1.52 1.9-1.42 0 .1-2.3 1.62-1.7 3.25-2.6 1.31-.7 2.03-3.4 4.36-1.8 1.01.7 2.23.1 2.53 1.2 0-.1-2.94 6.7-1.31 6.7-3.25 0-1.83-3.8-.61-6.4-1.22.6-3.15 4.3-1.52 5-.82 1.1-3.45 2.6-4.77 1.5-1.12-1-.51-2.3-.51-3.6ZM59.65 23c-5.68 0-1.82-8.6.1-8.1 2.24.7 1.93 8.2-.1 8.1Zm-6.29-8.2c-2.64-.1-1.52-2.6.3-3.1 1.73-.5 5.28 1.1 6.5 2.2-1.83.6-4.16.5-6.19.6-.2-2-.7-1.3-.6.3Z"/><path fill="#F49774" d="M72.84 25.8c-2.94-3 4.36-2.7 5.58-3.8.81.3 7.1-5.4 8.62-5-1.11 1.3-3.45 5.3-5.07 5.3-1.32 0-2.64-.2-3.65.7-1.52 1.4-3.96 2.1-5.48 2.8Z"/><path fill="#F4B1A4" d="M73.75 22.2c-1.62.9-3.14-2.5-.3-2.2 1.83.2 3.75-.2 5.48.1a5.99 5.99 0 0 1-5.18 2.1Z"/><path fill="#fff" d="M51.84 20.9c.3.4.6.8.5 1.4 0 .4-.6 1-.2 1.2l1.53-1.8c-.4-.1-3.55-3.8-3.55-4.2l-2.13 1.1c.1.4.8 0 1.21 0 .51 0 .92.4 1.32.7-1.11.9-3.85 3.3-4.16 3.3-.1 0-.7-.4-.7 0 0 .2.6.7.7.8l1.42 1.7c.4-.2-.1-.5.1-.8.1-.2 3.25-2.7 3.96-3.4Zm-3.45-4.5c.3-.1.4.3.61 0l-1.62-1.9c-.2-.3-.51-.6-.51 0 .1.4-4.06 3.7-4.26 3.8-.3.1-.5-.3-.71.1l1.42 1.7c.2.2.3.4.5.6.2.2.1-.4.1-.4-.1-.3.31-.6.62-.8 1.01-1 3.55-3.1 3.85-3.1Zm-5.78-.6c-1.12.3-2.44-.1-2.74-1.3-.4-1.2.4-2.4 1.32-3.1.91-.7 2.33-.6 2.84.5.2.5.1 1.1-.1 1.6-.1.3-.4.6 0 .8.6-.7 1.11-1.4 1.72-2.1-.7-.4-1.01-1.1-1.52-1.7-.6-.7-1.32-1.4-2.33-1.5-1.93-.3-3.65 1.7-3.86 3.4-.1.9.2 1.8.81 2.6.51.6 1.22 1.1 1.63 1.8.2.1 1.82-.7 2.13-.8.2 0 .1-.1.1-.2-.5.2 0 0 0 0Zm25.87 23.6c-.71-.5-2.64-3-3.05-3.5l-.2-.3-.2.1c-.1.1.1.4 0 .6-.5.8-3.75 3.2-3.96 3.4-.4.2-.8-.1-1.01.2.5.6 1.82 2.3 2.03 2.3.3 0 .1-.5.1-.6.1-.2 1.72-1.6 2.33-2.1.2-.2.4.3.61.5.2.3.3.7.2 1-.1.2-.5.6-.2.8.4-.5 1.52-1.8 1.73-2 .2-.2-.41 0-.3-.1-.21.1-.52.2-.72 0-.1 0-.71-.7-.6-.8.3-.2.6-.6 1-.7.62-.1 1.02 1 1.12 1.4.1.4.1.8-.1 1.1-.1.3-.3.5 0 .6l1.42-1.9c0 .1-.1.1-.2 0-.1 0 .1.1 0 0Zm-9.34-8.9c-.7 0-1.42.3-2.02.8a3.52 3.52 0 0 0-.51 4.8c1.32 1.7 3.45 1.9 5.17.7a3.52 3.52 0 0 0 .51-4.8 4.1 4.1 0 0 0-3.14-1.5Zm1.22 1.4c.92-.1 1.52.8 1.12 1.8-.4 1-1.42 2-2.44 2.4-1.21.5-2.03-.5-1.52-1.7.4-1 1.42-2 2.44-2.4.1 0 .2-.1.4-.1Zm-2.84-4.6c.3 0 .61.4.81 0l-1.42-1.7c-.4.2 0 .4-.1.6-.2.3-1.72.5-2.13.6.1-.4.61-1.7.81-1.8.4-.3.61.3.81-.1l-1.82-2.1c-.2-.2-.4-.7-.61-.4 0 0 0 1-.1 1.1-.1.2-.61 2.4-1.22 2.9-.3.3-1.52 1.3-1.83 1.4-.3.1-.5-.4-.8 0l1.62 1.9c.1.1.4.6.5.6.3.1 0-.6.1-.7.1-.3 1.63-1.8 2.34-1.9.91-.2 2.03-.5 3.04-.4.2 0-.2 0 0 0ZM82.07 34c.1.4.2.9.1 1.3-.1.6-.6 1.9-1.42 1.5-.8-.4-1.42-1.1-2.13-1.7.51-.6 1.02-1.1 1.93-.8.2.1.4 0 .2-.2-.3-.2-2.03-1.3-2.13-1.2-.2.2.3.6.1 1-.1.3-.4.5-.6.8-.51-.4-1.22-.8-.71-1.5.4-.4.8-.8 1.42-.9.4-.1 1.21.3 1.31-.1-.7-.3-1.42-.7-2.13-1 .1.5-2.23 2.9-2.73 3.5-.1.1-.41.4-.41.5 0 .3.4.1.4.1.31-.1 4.47 3.3 4.57 3.6.1.2-.1.4 0 .5 0 0 .1.1.2.1.3-.3 2.95-3.9 3.55-4l-1.52-2.4c-.4.2-.1.7 0 .9Zm-4.06 4.4c-1.31-.9-3.65.8-4.05 1-.71.3-1.22-.4-.81-1 .3-.5.9-.8 1.52-.8.2 0 .91.1.91 0 .1-.1.1-.1 0-.2-.6-.4-1.12-.8-1.72-1.1-.1.7-.92 1.1-1.32 1.6-.51.6-1.02 1.3-1.02 2s.4 1.4 1.12 1.7c.7.4 1.52.1 2.23-.3.4-.3.81-.6 1.22-.8.6-.3 1.52 0 1.32.8-.2.7-.92 1.3-1.63 1.5-.4.1-.8.1-1.21-.1-.3-.1-.61-.5-.82-.1l2.34 1.6c.1-.5.3-.7.7-1 .51-.4.92-.9 1.33-1.4.8-.9 1.11-2.5-.1-3.4Zm17.86-28.1c0 .1 0 .1 0 0l-.91 1-.81 1c-.2.2-.3.3 0 .5.5-.3 3.55 4.8 3.34 5.5-.5.2-4.56-3.3-4.66-3.5 0-.1.2-.7-.1-.6-.1 0-.51.6-.61.7l-.61.7c.2.3.3 0 .6 0 .2.1 1.22.9 1.53 1.1-.51 0-1.73.1-1.93.1-.6.1-.3-.4-.71-.6L89.48 18l-.91 1v.1c.2.2.1.1.4 0 .3-.1 4.36 3.2 4.46 3.4.2.3-.1.6.3.8l1.23-1.4c.1-.1.1-.1 0-.1-.3-.2-.3.1-.71.1-.3-.1-2.95-2.2-3.86-3l5.38-.2c.2 0 .7.6.7.8-.1.2-.3.4 0 .5.31-.4.62-.7.92-1.1l.1-.2c.1 0 .1-.1.1-.2l.1-.1c.31-.3 1.22-1.3 1.12-1.4-.3-.3-.4.3-.81 0-.2-.2-.81-1.2-.91-1.4-.2-.3.4-.6.6-.7.51-.3 2.14-.8 2.34.2 0 .2-.2.4-.1.5 0 0 .1.2.2.1l2.13-2.6-.2-.2c-.5.5-5.58-1.5-5.89-1.8-.1-.2-.1-.8-.3-.8Zm-.2 2.6c.8.3 1.52.6 2.33 1l-.6.3c-.21.1-.41.3-.62.5l-1.11-1.8Zm-6.7 7.7a3.7 3.7 0 0 0-3.04 1.3c-1.22 1.5-1.12 3.7.4 4.9 1.53 1.2 3.76.9 4.97-.5 1.22-1.5 1.12-3.7-.4-4.9-.5-.4-1.22-.7-1.93-.8Zm-1.42 1.6c.6 0 1.32.4 1.73.7.8.5 2.23 1.7 1.52 2.7 0-.1.1-.1-.1.1-.82.8-2.24.1-2.95-.5-.7-.5-2.03-1.7-1.21-2.7.3-.2.6-.3 1.01-.3Zm-3.14 4.3a4 4 0 0 0-3.35 1.6c-.61.8-1.32 1.5-1.93 2.3.2.3.5-.1.81.1.3.2 4.16 3.3 4.16 3.5.1.3-.2.4.1.6.1.1 2.94-3.4 3.25-4 .4-1.1.1-2.4-.81-3.2.1.1.2.1 0 0-.81-.6-1.52-.9-2.23-.9Zm-1.12 1.6h.3c1.42.4 3.45 2.1 2.13 3.6l-.4.4c-.2.2-4.26-3-4.06-3.2.4-.5 1.32-.9 2.03-.8Z"/></g></g></symbol><symbol id="souveniers-tablet"><g fill="none"><path fill="#81B3D2" d="M74.44 22.12h-30c16.72-6.8 18.08-11.1 17.46-13.5-1.35-3.9-6.88-6.9-12.05-5.3-6.76 2.1-8.6 10.3-10.45 16.2-2.33-6-4.55-13.6-9.83-17.5a10.21 10.21 0 0 0-7.01-2c-4.92.4-11.93 5.3-8.98 10.8 2.7 5.3 11.68 8.7 17.7 11.4H3.88c-1.97 0-3.44 1.3-3.44 2.8v11.2c0 1.6 1.6 2.8 3.44 2.8h.37v36h70.08v-36h.12c1.97 0 3.45-1.3 3.45-2.8v-11.2c0-1.6-1.6-2.9-3.45-2.9ZM51.82 5.82c2.58-.3 6.02 1.3 6.4 3.2.48 2.7-4.06 5.2-6.15 6.3-3.08 1.7-6.03 2.6-8.86 4 .99-3.7 3.08-12.9 8.61-13.5Zm-27.79 9.8c-2.7-1.5-7.87-4.4-7.74-7.7.12-3.6 7-6.5 10.7-3.8 4.67 3.3 6.88 11 8.6 16.4-3.93-1.6-7.62-2.8-11.56-4.9Zm7.26 56.4H7.8v-33h23.5v33Zm0-36H4.1v-10.9h27.2v10.9Zm12.3 36h-8.74v-46.9h8.73v46.9Zm27.04 0H47.27v-33h23.48v33h-.12Zm3.57-36H47.27v-10.9H74.2v10.9Z"/></g></symbol><symbol id="souveniers"><g fill="none"><path fill="#83B3D3" d="M61.6 22.46H36.8c13.8-6.9 14.9-11.3 14.4-13.7-1.2-4.01-5.7-7.01-10-5.41-5.6 2.1-7.1 10.4-8.6 16.41-2-6.1-3.8-13.8-8.2-17.71-1.3-1.1-3.1-2.3-5.8-2-4 .4-9.8 5.4-7.5 11 2.3 5.4 9.7 8.81 14.6 11.51H3.4a2.9 2.9 0 0 0-2.9 2.9v11.31c0 1.6 1.3 2.9 2.9 2.9h.3V76h57.8V39.57h.1c1.6 0 2.9-1.3 2.9-2.9v-11.3c0-1.6-1.3-2.9-2.9-2.9ZM42.9 5.86c2.1-.3 5 1.3 5.3 3.2.4 2.8-3.4 5.3-5.1 6.4-2.5 1.7-4.9 2.6-7.3 4.1.9-3.7 2.5-13 7.1-13.7Zm-22.9 10c-2.2-1.5-6.5-4.4-6.4-7.8.1-3.61 5.7-6.61 8.8-3.91 3.9 3.4 5.7 11.1 7.1 16.61-3.2-1.5-6.3-2.8-9.5-4.9ZM26 73H6.6V39.57H26V73Zm0-36.53H3.5v-11H26v11Zm10.2 0V73H29V25.57h7.2v10.9ZM58.5 73H39.1V39.57h19.4V73Zm2.9-36.53H39.1v-11h22.3v11Z"/></g></symbol><symbol id="telegram"><g fill="none"><path fill="#81B3D2" d="M0 0h48v48H0z"/><path fill="#fff" d="m34.44 16.62-3.17 14.95c-.24 1.05-.86 1.31-1.75.82l-4.83-3.56-2.33 2.24c-.25.26-.47.47-.97.47l.35-4.91 8.95-8.09c.39-.35-.09-.54-.6-.2l-11.07 6.97-4.76-1.49c-1.04-.32-1.05-1.03.22-1.53l18.62-7.18c.87-.32 1.62.2 1.34 1.51Z"/></g></symbol><symbol id="vk"><g fill="none"><path fill="#81B3D2" d="M0 0h48v48H0z"/><g clip-path="url(#a)"><path fill="#fff" fill-rule="evenodd" d="M35.45 17.95c.17-.55 0-.95-.8-.95h-2.62c-.67 0-.98.35-1.14.73 0 0-1.34 3.2-3.23 5.27-.61.6-.89.8-1.22.8-.17 0-.42-.2-.42-.74v-5.11c0-.66-.18-.95-.74-.95h-4.13c-.42 0-.67.3-.67.6 0 .61.95.76 1.05 2.5v3.8c0 .84-.16.99-.5.99-.88 0-3.05-3.21-4.33-6.89-.25-.71-.5-1-1.17-1H12.9c-.75 0-.9.35-.9.73 0 .68.89 4.07 4.14 8.55 2.18 3.06 5.23 4.72 8.01 4.72 1.67 0 1.88-.37 1.88-1v-2.32c0-.73.16-.88.68-.88.4 0 1.06.2 2.62 1.67C31.11 30.22 31.4 31 32.41 31h2.62c.75 0 1.13-.37.91-1.1-.24-.72-1.09-1.77-2.21-3.02-.62-.7-1.53-1.47-1.81-1.86-.4-.49-.28-.7 0-1.14 0 0 3.2-4.43 3.53-5.93Z" clip-rule="evenodd"/></g></g></symbol><symbol id="youtube"><g fill="none"><path fill="#81B3D2" d="M0 0h48v48H0z"/><path fill="#fff" d="M31.18 17H16.81c-1.5 0-2.81 1.3-2.81 2.8v8.3c0 1.6 1.3 2.9 2.81 2.9h14.37A2.8 2.8 0 0 0 34 28.2v-8.4c.1-1.5-1.2-2.8-2.8-2.8ZM21.03 27.4v-6.8l6.84 3.4-6.84 3.4Z"/></g></symbol></svg>